<svg width="44" height="26" viewBox="0 0 44 26" fill="none" xmlns="http://www.w3.org/2000/svg">
<g id="Group 96">
<g id="Vector">
<path d="M19.76 9.65714C19.76 14.9906 15.3366 19.3143 9.88 19.3143C4.42343 19.3143 0 14.9906 0 9.65714C0 4.32365 4.42343 0 9.88 0C15.3366 0 19.76 4.32365 19.76 9.65714Z" fill="#00292A"/>
<path d="M3.04 26C19.76 25.2571 19.76 10.4003 19.76 10.4003L3.04 10.4C18.3061 18.3124 3.04 26 3.04 26Z" fill="#00292A"/>
</g>
<g id="Vector_2">
<path d="M43.76 9.65714C43.76 14.9906 39.3366 19.3143 33.88 19.3143C28.4234 19.3143 24 14.9906 24 9.65714C24 4.32365 28.4234 0 33.88 0C39.3366 0 43.76 4.32365 43.76 9.65714Z" fill="#E59434"/>
<path d="M27.04 26C43.76 25.2571 43.76 10.4003 43.76 10.4003L27.04 10.4C42.3061 18.3124 27.04 26 27.04 26Z" fill="#E59434"/>
</g>
</g>
</svg>
