<svg width="72" height="72" viewBox="0 0 72 72" fill="none" xmlns="http://www.w3.org/2000/svg">
<path d="M36.009 0H35.991C16.1415 0 0 16.146 0 36C0 43.875 2.538 51.174 6.8535 57.1005L2.367 70.4745L16.2045 66.051C21.897 69.822 28.6875 72 36.009 72C55.8585 72 72 55.8495 72 36C72 16.1505 55.8585 0 36.009 0ZM56.9565 50.8365C56.088 53.289 52.641 55.323 49.8915 55.917C48.0105 56.3175 45.5535 56.637 37.2825 53.208C26.703 48.825 19.89 38.0745 19.359 37.377C18.8505 36.6795 15.084 31.6845 15.084 26.5185C15.084 21.3525 17.7075 18.837 18.765 17.757C19.6335 16.8705 21.069 16.4655 22.446 16.4655C22.8915 16.4655 23.292 16.488 23.652 16.506C24.7095 16.551 25.2405 16.614 25.938 18.2835C26.8065 20.376 28.9215 25.542 29.1735 26.073C29.43 26.604 29.6865 27.324 29.3265 28.0215C28.989 28.7415 28.692 29.061 28.161 29.673C27.63 30.285 27.126 30.753 26.595 31.41C26.109 31.9815 25.56 32.5935 26.172 33.651C26.784 34.686 28.899 38.1375 32.013 40.9095C36.0315 44.487 39.2895 45.63 40.455 46.116C41.3235 46.476 42.3585 46.3905 42.993 45.7155C43.7985 44.847 44.793 43.407 45.8055 41.9895C46.5255 40.9725 47.4345 40.8465 48.3885 41.2065C49.3605 41.544 54.504 44.0865 55.5615 44.613C56.619 45.144 57.3165 45.396 57.573 45.8415C57.825 46.287 57.825 48.3795 56.9565 50.8365Z" fill="url(#paint0_linear_69_317)" fill-opacity="0.27"/>
<defs>
<linearGradient id="paint0_linear_69_317" x1="36" y1="0" x2="36" y2="72" gradientUnits="userSpaceOnUse">
<stop stop-color="#E59434"/>
<stop offset="1" stop-color="#7F521D"/>
</linearGradient>
</defs>
</svg>
