<svg width="72" height="72" viewBox="0 0 72 72" fill="none" xmlns="http://www.w3.org/2000/svg">
<path fill-rule="evenodd" clip-rule="evenodd" d="M61.4571 10.5404C55.2171 4.30272 46.9038 0.573557 38.0957 0.0608731C29.2876 -0.451811 20.5978 2.28768 13.6763 7.75923C6.75469 13.2308 2.08322 21.0534 0.548762 29.742C-0.985695 38.4306 0.723695 47.3802 5.35239 54.8916L6.15171 56.1853L0.000603193 71.9968L15.8125 65.8459L17.1063 66.6451C24.6177 71.2747 33.5677 72.9849 42.2568 71.4507C50.9459 69.9166 58.7692 65.245 64.241 58.323C69.7128 51.4011 72.4522 42.7107 71.939 33.9021C71.4258 25.0935 67.6957 16.7801 61.4571 10.5404ZM55.9487 25.1417C56.0688 25.2223 56.1673 25.3313 56.2355 25.459C56.3036 25.5867 56.3393 25.7292 56.3395 25.8739V46.1195C56.3395 46.2642 56.3039 46.4067 56.2358 46.5344C56.1678 46.6621 56.0693 46.771 55.9491 46.8517C55.8289 46.9323 55.6908 46.9821 55.5468 46.9966C55.4028 47.0112 55.2575 46.99 55.1236 46.9351L45.0008 42.7955L44.954 45.9746C44.9289 47.6745 43.6443 49.2343 41.8799 49.2343H18.7388C16.9529 49.2343 15.6621 47.6388 15.6621 45.9194V26.0732C15.6621 24.3537 16.9527 22.759 18.7388 22.759H41.8798C43.6442 22.759 44.9288 24.32 44.9538 26.0194L45.0008 29.1991L55.124 25.0573C55.2578 25.0026 55.4031 24.9817 55.5469 24.9964C55.6907 25.0111 55.8287 25.061 55.9487 25.1417Z" fill="url(#paint0_linear_69_342)" fill-opacity="0.27"/>
<defs>
<linearGradient id="paint0_linear_69_342" x1="36" y1="0" x2="36" y2="71.9992" gradientUnits="userSpaceOnUse">
<stop stop-color="#E59434"/>
<stop offset="1" stop-color="#7F521D"/>
</linearGradient>
</defs>
</svg>
