<svg width="72" height="72" viewBox="0 0 72 72" fill="none" xmlns="http://www.w3.org/2000/svg">
<path d="M66.3943 47.8798L55.0543 44.6398C53.7306 44.2586 52.3289 44.2388 50.995 44.5825C49.661 44.9262 48.4434 45.6208 47.4687 46.5941L41.323 52.7398C31.5231 48.3238 23.6762 40.4769 19.2602 30.677L25.4059 24.5313C26.3792 23.5566 27.0738 22.339 27.4175 21.005C27.7612 19.671 27.7414 18.2694 27.3602 16.9457L24.1202 5.6057C23.6609 3.98952 22.6866 2.56747 21.3453 1.55566C20.0039 0.543857 18.3689 -0.00236748 16.6888 7.71349e-06H7.71452C5.66857 7.71349e-06 3.70642 0.812758 2.25971 2.25946C0.813009 3.70617 0.00025857 5.66832 0.00025857 7.71426V12.8571C-0.0228057 20.6267 1.49734 28.3235 4.47249 35.501C7.44765 42.6784 11.8186 49.1936 17.3316 54.6684C22.8064 60.1814 29.3216 64.5523 36.499 67.5275C43.6765 70.5027 51.3733 72.0228 59.1429 71.9997H64.2857C66.3317 71.9997 68.2938 71.187 69.7405 69.7403C71.1872 68.2936 72 66.3314 72 64.2855V55.3112C72.0024 53.6311 71.4561 51.9961 70.4443 50.6547C69.4325 49.3134 68.0105 48.3391 66.3943 47.8798ZM41.143 5.14285C44.5198 5.14285 47.8636 5.80796 50.9834 7.10022C54.1031 8.39248 56.9379 10.2866 59.3256 12.6744C61.7134 15.0621 63.6075 17.8969 64.8998 21.0166C66.192 24.1364 66.8571 27.4802 66.8571 30.857C66.8571 31.539 67.1281 32.1931 67.6103 32.6753C68.0925 33.1575 68.7466 33.4285 69.4286 33.4285C70.1105 33.4285 70.7646 33.1575 71.2468 32.6753C71.7291 32.1931 72 31.539 72 30.857C72 22.6732 68.749 14.8246 62.9622 9.03782C57.1754 3.25101 49.3268 7.71349e-06 41.143 7.71349e-06C40.461 7.71349e-06 39.8069 0.270924 39.3247 0.753159C38.8425 1.23539 38.5715 1.88944 38.5715 2.57143C38.5715 3.25341 38.8425 3.90746 39.3247 4.38969C39.8069 4.87193 40.461 5.14285 41.143 5.14285Z" fill="url(#paint0_linear_69_344)" fill-opacity="0.27"/>
<path d="M41.1429 18.0001C42.8314 18.0001 44.5033 18.3327 46.0631 18.9788C47.623 19.625 49.0404 20.572 50.2343 21.7659C51.4282 22.9598 52.3752 24.3771 53.0214 25.937C53.6675 27.4969 54 29.1688 54 30.8572C54 31.5392 54.271 32.1933 54.7532 32.6755C55.2354 33.1577 55.8895 33.4286 56.5715 33.4286C57.2534 33.4286 57.9075 33.1577 58.3897 32.6755C58.872 32.1933 59.1429 31.5392 59.1429 30.8572C59.1429 26.0834 57.2465 21.505 53.8708 18.1294C50.4952 14.7537 45.9168 12.8573 41.1429 12.8573C40.461 12.8573 39.8069 13.1282 39.3247 13.6104C38.8424 14.0927 38.5715 14.7467 38.5715 15.4287C38.5715 16.1107 38.8424 16.7648 39.3247 17.247C39.8069 17.7292 40.461 18.0001 41.1429 18.0001Z" fill="url(#paint1_linear_69_344)" fill-opacity="0.27"/>
<defs>
<linearGradient id="paint0_linear_69_344" x1="36" y1="0" x2="36" y2="72" gradientUnits="userSpaceOnUse">
<stop stopColor="#E59434"/>
<stop offset="1" stopColor="#7F521D"/>
</linearGradient>
<linearGradient id="paint1_linear_69_344" x1="36" y1="0" x2="36" y2="72" gradientUnits="userSpaceOnUse">
<stop stopColor="#E59434"/>
<stop offset="1" stopColor="#7F521D"/>
</linearGradient>
</defs>
</svg>
