<svg width="72" height="72" viewBox="0 0 72 72" fill="none" xmlns="http://www.w3.org/2000/svg">
<path d="M72 20.5714V12.8571C72 10.8112 71.1872 8.84903 69.7405 7.40232C68.2938 5.95561 66.3317 5.14286 64.2857 5.14286H54V2.57143C54 1.88944 53.7291 1.23539 53.2468 0.753154C52.7646 0.270917 52.1106 0 51.4286 0C50.7466 0 50.0925 0.270917 49.6103 0.753154C49.1281 1.23539 48.8571 1.88944 48.8571 2.57143V5.14286H23.1429V2.57143C23.1429 1.88944 22.8719 1.23539 22.3897 0.753154C21.9075 0.270917 21.2534 0 20.5714 0C19.8894 0 19.2354 0.270917 18.7532 0.753154C18.2709 1.23539 18 1.88944 18 2.57143V5.14286H7.71429C5.66833 5.14286 3.70617 5.95561 2.25946 7.40232C0.812753 8.84903 0 10.8112 0 12.8571V20.5714H72ZM0 25.7143V64.2857C0 66.3317 0.812753 68.2938 2.25946 69.7405C3.70617 71.1872 5.66833 72 7.71429 72H64.2857C66.3317 72 68.2938 71.1872 69.7405 69.7405C71.1872 68.2938 72 66.3317 72 64.2857V25.7143H0ZM50.5286 40.5231L32.5286 55.9517C32.0366 56.3724 31.404 56.592 30.7572 56.5667C30.1103 56.5415 29.4968 56.2732 29.0391 55.8154L21.3249 48.1011C20.8565 47.6162 20.5973 46.9666 20.6031 46.2924C20.609 45.6182 20.8794 44.9732 21.3562 44.4965C21.8329 44.0197 22.4779 43.7493 23.1521 43.7434C23.8263 43.7375 24.4759 43.9967 24.9609 44.4651L30.9934 50.4977L47.1934 36.612C47.4484 36.3822 47.7468 36.2058 48.071 36.0931C48.3952 35.9804 48.7387 35.9338 49.0813 35.956C49.4238 35.9782 49.7584 36.0687 50.0654 36.2223C50.3724 36.3758 50.6455 36.5893 50.8687 36.8501C51.0919 37.1109 51.2606 37.4137 51.3649 37.7407C51.4692 38.0677 51.5069 38.4123 51.476 38.7541C51.445 39.096 51.3459 39.4282 51.1845 39.7311C51.0231 40.034 50.8027 40.3016 50.5363 40.518L50.5286 40.5231Z" fill="url(#paint0_linear_69_345)" fill-opacity="0.27"/>
<defs>
<linearGradient id="paint0_linear_69_345" x1="36" y1="0" x2="36" y2="72" gradientUnits="userSpaceOnUse">
<stop stopColor="#E59434"/>
<stop offset="1" stopColor="#7F521D"/>
</linearGradient>
</defs>
</svg>
