<svg width="61" height="60" viewBox="0 0 61 60" fill="none" xmlns="http://www.w3.org/2000/svg">
<g id="Group">
<g id="Group_2">
<path id="Vector" d="M35.0849 52.5283C32.6905 52.5515 30.3181 52.0693 28.1226 51.1132C27.8455 50.9999 27.6244 50.7816 27.5078 50.5058C27.3911 50.23 27.3883 49.9193 27.5 49.6415C27.613 49.3642 27.8314 49.1429 28.1072 49.0262C28.3831 48.9095 28.6939 48.9069 28.9717 49.0189C30.8897 49.8195 32.9499 50.2238 35.0283 50.2076C39.1689 50.1984 43.1373 48.5496 46.0651 45.6217C48.9929 42.6939 50.6418 38.7255 50.6509 34.5849C50.642 30.4443 48.9931 26.4758 46.0653 23.5479C43.1374 20.6201 39.1689 18.9712 35.0283 18.9623C34.7281 18.9623 34.4401 18.843 34.2278 18.6307C34.0155 18.4184 33.8962 18.1304 33.8962 17.8302C33.8962 17.53 34.0155 17.242 34.2278 17.0297C34.4401 16.8174 34.7281 16.6981 35.0283 16.6981C39.769 16.7086 44.3125 18.5964 47.6646 21.9486C51.0168 25.3008 52.9046 29.8443 52.9151 34.5849C52.9328 38.1244 51.8981 41.5893 49.9423 44.5395C47.9866 47.4897 45.1981 49.792 41.9311 51.154C39.7618 52.0585 37.4352 52.5256 35.0849 52.5283Z" fill="#E59434"/>
<path id="Vector_2" d="M35.0849 38.5472C34.0495 38.5457 33.057 38.1337 32.3248 37.4016C31.5927 36.6694 31.1807 35.6769 31.1792 34.6415C31.1807 33.6061 31.5927 32.6136 32.3248 31.8814C33.057 31.1493 34.0495 30.7373 35.0849 30.7358C36.1203 30.7373 37.1128 31.1493 37.845 31.8814C38.5771 32.6136 38.9891 33.6061 38.9906 34.6415C38.9891 35.6769 38.5771 36.6694 37.845 37.4016C37.1128 38.1337 36.1203 38.5457 35.0849 38.5472ZM35.0849 33C34.6495 33 34.232 33.1729 33.9242 33.4808C33.6163 33.7886 33.4434 34.2061 33.4434 34.6415C33.4434 35.0769 33.6163 35.4944 33.9242 35.8022C34.232 36.1101 34.6495 36.283 35.0849 36.283C35.5203 36.283 35.9378 36.1101 36.2456 35.8022C36.5535 35.4944 36.7264 35.0769 36.7264 34.6415C36.7264 34.2061 36.5535 33.7886 36.2456 33.4808C35.9378 33.1729 35.5203 33 35.0849 33Z" fill="#E59434"/>
<path id="Vector_3" d="M23.934 47.8868C23.6617 47.889 23.3987 47.7879 23.1981 47.6038C23.0868 47.5056 22.9967 47.3858 22.9332 47.2516C22.8698 47.1175 22.8343 46.9718 22.829 46.8235C22.8237 46.6752 22.8487 46.5273 22.9024 46.389C22.9561 46.2507 23.0375 46.1247 23.1415 46.0189L32.3113 35.8868C32.4095 35.7756 32.5294 35.6855 32.6635 35.6221C32.7977 35.5587 32.9433 35.5233 33.0916 35.518C33.2399 35.5127 33.3877 35.5376 33.526 35.5913C33.6644 35.645 33.7903 35.7263 33.8962 35.8302C34.0067 35.9289 34.096 36.0489 34.1589 36.183C34.2218 36.3171 34.257 36.4625 34.2623 36.6106C34.2676 36.7586 34.2429 36.9062 34.1897 37.0444C34.1365 37.1827 34.0559 37.3088 33.9528 37.4151L24.783 47.4906C24.6797 47.6154 24.55 47.7158 24.4031 47.7843C24.2563 47.8529 24.096 47.8879 23.934 47.8868ZM18.3302 11.5472H1.57547C1.27522 11.5472 0.987273 11.4279 0.774967 11.2156C0.562662 11.0033 0.44339 10.7153 0.44339 10.4151C0.44339 10.1148 0.562662 9.8269 0.774967 9.6146C0.987273 9.40229 1.27522 9.28302 1.57547 9.28302H18.3302C18.6304 9.28302 18.9184 9.40229 19.1307 9.6146C19.343 9.8269 19.4623 10.1148 19.4623 10.4151C19.4623 10.7153 19.343 11.0033 19.1307 11.2156C18.9184 11.4279 18.6304 11.5472 18.3302 11.5472ZM14.5943 19.0189H7.17924C6.87899 19.0189 6.59105 18.8996 6.37874 18.6873C6.16644 18.475 6.04716 18.187 6.04716 17.8868C6.04716 17.5865 6.16644 17.2986 6.37874 17.0863C6.59105 16.874 6.87899 16.7547 7.17924 16.7547H14.5943C14.8946 16.7547 15.1825 16.874 15.3948 17.0863C15.6071 17.2986 15.7264 17.5865 15.7264 17.8868C15.7264 18.187 15.6071 18.475 15.3948 18.6873C15.1825 18.8996 14.8946 19.0189 14.5943 19.0189ZM27.6698 19.0189H22.066C21.7658 19.0189 21.4778 18.8996 21.2655 18.6873C21.0532 18.475 20.934 18.187 20.934 17.8868C20.934 17.5865 21.0532 17.2986 21.2655 17.0863C21.4778 16.874 21.7658 16.7547 22.066 16.7547H27.6698C27.97 16.7547 28.258 16.874 28.4703 17.0863C28.6826 17.2986 28.8019 17.5865 28.8019 17.8868C28.8019 18.187 28.6826 18.475 28.4703 18.6873C28.258 18.8996 27.97 19.0189 27.6698 19.0189ZM40.7453 6.90566C40.445 6.90566 40.1571 6.78639 39.9448 6.57408C39.7325 6.36178 39.6132 6.07383 39.6132 5.77359V3C39.6103 2.80575 39.5318 2.62028 39.3944 2.48291C39.2571 2.34554 39.0716 2.26707 38.8773 2.26415H31.4057C31.2114 2.26707 31.0259 2.34554 30.8886 2.48291C30.7512 2.62028 30.6727 2.80575 30.6698 3V5.77359C30.6698 6.07383 30.5505 6.36178 30.3382 6.57408C30.1259 6.78639 29.838 6.90566 29.5377 6.90566C29.2375 6.90566 28.9495 6.78639 28.7372 6.57408C28.5249 6.36178 28.4057 6.07383 28.4057 5.77359V3C28.4116 2.20618 28.7295 1.44656 29.2909 0.885227C29.8522 0.323897 30.6118 0.00592427 31.4057 0H38.8773C39.6712 0.00592427 40.4308 0.323897 40.9921 0.885227C41.5535 1.44656 41.8714 2.20618 41.8773 3V5.77359C41.8773 6.07383 41.7581 6.36178 41.5458 6.57408C41.3335 6.78639 41.0455 6.90566 40.7453 6.90566Z" fill="#E59434"/>
<path id="Vector_4" d="M35.1415 60C28.4182 59.9928 21.9724 57.3188 17.2183 52.5647C12.4642 47.8106 9.79021 41.3648 9.78302 34.6415C9.79509 31.279 10.4682 27.9518 11.7642 24.8491C11.8772 24.5717 12.0956 24.3504 12.3714 24.2337C12.6472 24.117 12.9581 24.1144 13.2358 24.2264C13.5132 24.3395 13.7345 24.5578 13.8512 24.8336C13.9679 25.1095 13.9705 25.4203 13.8585 25.6981C12.6964 28.5166 12.1002 31.5362 12.1038 34.5849C12.1096 40.7081 14.5446 46.5788 18.8744 50.9086C23.2042 55.2384 29.0749 57.6734 35.1981 57.6792C41.3214 57.6737 47.1923 55.2388 51.5222 50.9089C55.852 46.5791 58.2869 40.7082 58.2924 34.5849C58.286 28.4619 55.8508 22.5915 51.5212 18.2619C47.1915 13.9322 41.3211 11.497 35.1981 11.4906H25.8585C25.5582 11.4906 25.2703 11.3713 25.058 11.159C24.8457 10.9467 24.7264 10.6587 24.7264 10.3585C24.7264 10.0582 24.8457 9.77029 25.058 9.55799C25.2703 9.34568 25.5582 9.22641 25.8585 9.22641H35.1981C41.9213 9.23405 48.3669 11.9082 53.1208 16.6622C57.8748 21.4162 60.549 27.8618 60.5566 34.5849C60.5421 41.3209 57.8598 47.7769 53.0967 52.5401C48.3336 57.3032 41.8776 59.9855 35.1415 60Z" fill="#E59434"/>
<path id="Vector_5" d="M56.5377 16.3585C56.2219 16.3571 55.9184 16.2357 55.6887 16.0189C54.4212 14.6363 53.0179 13.3847 51.5 12.283C51.314 12.1554 51.1705 11.975 51.088 11.765C51.0054 11.5551 50.9877 11.3252 51.037 11.1051C51.0692 10.9591 51.1309 10.8204 51.217 10.6981C51.3021 10.575 51.4107 10.4698 51.5366 10.3888C51.6625 10.3078 51.8032 10.2525 51.9506 10.226C52.0979 10.1996 52.2491 10.2026 52.3952 10.2351C52.5414 10.2675 52.6796 10.3287 52.8019 10.4151C54.4468 11.615 55.9642 12.9807 57.3302 14.4906C57.5302 14.7095 57.6364 14.9982 57.6258 15.2946C57.6152 15.591 57.4887 15.8714 57.2736 16.0755C57.073 16.2596 56.81 16.3608 56.5377 16.3585Z" fill="#E59434"/>
</g>
</g>
</svg>
