<svg width="58" height="60" viewBox="0 0 58 60" fill="none" xmlns="http://www.w3.org/2000/svg">
<g id="Group">
<path id="Vector" d="M1.09552 34.5966C0.183502 35.9866 -0.0455017 37.6896 0.468507 39.2707C0.982515 40.8517 2.16754 42.0947 3.72256 42.6817L6.74961 43.8257C7.3787 44.0635 7.92451 44.4801 8.31985 45.0242C8.7152 45.5682 8.9428 46.216 8.97465 46.8878L9.12665 50.1208C9.1637 50.9366 9.38437 51.7334 9.77223 52.452C10.1601 53.1705 10.7051 53.7923 11.3667 54.2709C12.0261 54.7523 12.7857 55.0785 13.5888 55.2251C14.3919 55.3718 15.2178 55.3352 16.0048 55.1179L19.1258 54.2639C19.7746 54.0868 20.461 54.1032 21.1006 54.3111C21.7402 54.519 22.3052 54.9092 22.7259 55.4339L24.7489 57.958C25.7879 59.255 27.338 60 29 60C30.662 60 32.212 59.256 33.2511 57.959L35.2741 55.4339C35.6945 54.9089 36.2595 54.5184 36.8992 54.3107C37.5389 54.103 38.2255 54.087 38.8741 54.2649L41.9952 55.1189C42.7821 55.3368 43.6081 55.3738 44.4113 55.2271C45.2146 55.0804 45.9742 54.7539 46.6333 54.2719C47.295 53.7934 47.8402 53.1717 48.228 52.4531C48.6159 51.7345 48.8365 50.9376 48.8733 50.1218L49.0253 46.8898C49.0568 46.2179 49.2842 45.5699 49.6796 45.0258C50.075 44.4817 50.6211 44.0652 51.2504 43.8277L54.2774 42.6837C55.0417 42.3969 55.7313 41.9412 56.2948 41.3506C56.8583 40.7599 57.281 40.0496 57.5315 39.2727C57.7857 38.4966 57.8613 37.6732 57.7527 36.8639C57.6442 36.0545 57.3542 35.2802 56.9044 34.5986L55.1284 31.8935C54.7586 31.3316 54.5614 30.6737 54.5614 30.001C54.5614 29.3283 54.7586 28.6704 55.1284 28.1085L56.9044 25.4034C57.8165 24.0134 58.0455 22.3104 57.5315 20.7293C57.0175 19.1483 55.8324 17.9053 54.2774 17.3183L51.2504 16.1743C50.6213 15.9365 50.0755 15.5199 49.6801 14.9759C49.2848 14.4318 49.0572 13.784 49.0253 13.1122L48.8733 9.87916C48.8363 9.06345 48.6156 8.26661 48.2277 7.54804C47.8399 6.82948 47.2949 6.20772 46.6333 5.7291C45.974 5.24752 45.2144 4.92121 44.4112 4.77453C43.6081 4.62786 42.7821 4.66462 41.9952 4.88208L38.8741 5.7361C38.2254 5.91371 37.5388 5.89757 36.8991 5.68966C36.2594 5.48176 35.6945 5.09117 35.2741 4.56608L33.2511 2.04203C32.212 0.745013 30.662 0 29 0C27.338 0 25.7879 0.744012 24.7489 2.04103L22.7259 4.56608C22.3052 5.09079 21.7402 5.48103 21.1006 5.68874C20.4609 5.89645 19.7745 5.91256 19.1258 5.7351L16.0048 4.88108C14.4047 4.44307 12.7117 4.75108 11.3667 5.7281C10.0217 6.70511 9.20565 8.21814 9.12665 9.87817L8.97465 13.1102C8.94318 13.7821 8.71572 14.4301 8.32033 14.9742C7.92494 15.5183 7.37891 15.9348 6.74961 16.1723L3.72256 17.3163C2.95827 17.6031 2.26865 18.0588 1.70518 18.6494C1.14171 19.2401 0.718964 19.9504 0.468507 20.7273C0.214304 21.5034 0.138664 22.3268 0.247234 23.1361C0.355805 23.9455 0.645781 24.7198 1.09552 25.4014L2.87155 28.1065C3.24141 28.6684 3.43852 29.3263 3.43852 29.999C3.43852 30.6717 3.24141 31.3296 2.87155 31.8915L1.09552 34.5966ZM4.54357 27.0095L2.76755 24.3044C2.4828 23.8731 2.29919 23.383 2.23045 22.8708C2.1617 22.3586 2.20959 21.8375 2.37054 21.3464C2.52911 20.8547 2.79675 20.4052 3.15348 20.0315C3.5102 19.6578 3.94678 19.3696 4.43057 19.1883L7.45762 18.0443C8.45168 17.6684 9.31413 17.01 9.93883 16.1502C10.5635 15.2905 10.9232 14.2668 10.9737 13.2052L11.1257 9.97317C11.1488 9.45698 11.2883 8.9527 11.5337 8.49798C11.779 8.04326 12.124 7.64984 12.5427 7.34712C12.9603 7.04276 13.4412 6.83649 13.9495 6.74369C14.4578 6.65089 14.9806 6.67394 15.4788 6.81111L18.5998 7.66513C19.6248 7.94644 20.7097 7.92133 21.7206 7.59291C22.7315 7.26448 23.624 6.64712 24.2879 5.8171L26.3109 3.29206C26.969 2.47104 27.95 2.00003 29.001 2.00003C30.052 2.00003 31.033 2.47104 31.691 3.29206L33.7141 5.8171C34.378 6.64712 35.2705 7.26448 36.2814 7.59291C37.2922 7.92133 38.3772 7.94644 39.4022 7.66513L42.5232 6.81111C43.0214 6.67408 43.5441 6.65111 44.0524 6.74391C44.5607 6.83671 45.0416 7.04289 45.4593 7.34712C45.8779 7.64995 46.2227 8.04338 46.4681 8.49809C46.7135 8.95279 46.853 9.45702 46.8763 9.97317L47.0283 13.2062C47.0785 14.2677 47.4382 15.2913 48.0629 16.151C48.6877 17.0106 49.5502 17.6688 50.5443 18.0443L53.5714 19.1883C54.0549 19.37 54.4913 19.6584 54.8479 20.032C55.2046 20.4056 55.4724 20.8549 55.6314 21.3464C55.9564 22.3464 55.8114 23.4254 55.2344 24.3044L53.4584 27.0085C52.8747 27.8966 52.5636 28.9362 52.5636 29.999C52.5636 31.0618 52.8747 32.1014 53.4584 32.9896L55.2344 35.6946C55.5192 36.1259 55.7028 36.616 55.7715 37.1282C55.8403 37.6404 55.7924 38.1615 55.6314 38.6526C55.4729 39.1443 55.2052 39.5938 54.8485 39.9675C54.4918 40.3412 54.0552 40.6295 53.5714 40.8107L50.5443 41.9547C49.5503 42.3306 48.6878 42.989 48.0631 43.8488C47.4384 44.7086 47.0787 45.7322 47.0283 46.7938L46.8763 50.0258C46.8531 50.542 46.7137 51.0463 46.4683 51.501C46.2229 51.9557 45.878 52.3492 45.4593 52.6519C45.0414 52.9558 44.5606 53.1618 44.0523 53.2546C43.5441 53.3473 43.0215 53.3246 42.5232 53.1879L39.4022 52.3339C38.3772 52.0531 37.2924 52.0784 36.2816 52.4068C35.2709 52.7352 34.3783 53.3523 33.7141 54.1819L31.691 56.7069C31.033 57.528 30.052 57.999 29.001 57.999C27.95 57.999 26.969 57.528 26.3109 56.7069L24.2879 54.1829C23.624 53.3532 22.7316 52.736 21.721 52.4076C20.7103 52.0792 19.6257 52.0539 18.6008 52.3349L15.4798 53.1889C14.9816 53.3263 14.4588 53.3494 13.9504 53.2566C13.4421 53.1638 12.9612 52.9574 12.5437 52.6529C12.1251 52.3501 11.7802 51.9566 11.5349 51.5019C11.2895 51.0472 11.15 50.543 11.1267 50.0268L10.9747 46.7938C10.9244 45.7323 10.5648 44.7087 9.94004 43.849C9.3153 42.9894 8.45274 42.3312 7.45862 41.9557L4.43157 40.8117C3.94804 40.63 3.5117 40.3416 3.15504 39.968C2.79837 39.5944 2.53056 39.1451 2.37154 38.6536C2.04653 37.6536 2.19154 36.5746 2.76855 35.6956L4.54457 32.9916C5.12829 32.1034 5.43932 31.0638 5.43932 30.001C5.43932 28.9382 5.12829 27.8986 4.54457 27.0105L4.54357 27.0095Z" fill="#E59434"/>
<path id="Vector_2" d="M29 48.9628C39.4562 48.9628 47.9633 40.4557 47.9633 29.9995C47.9633 19.5433 39.4562 11.0362 29 11.0362C18.5438 11.0362 10.0367 19.5433 10.0367 29.9995C10.0367 40.4557 18.5438 48.9628 29 48.9628ZM29 13.0362C38.3542 13.0362 45.9633 20.6453 45.9633 29.9995C45.9633 39.3537 38.3542 46.9628 29 46.9628C19.6458 46.9628 12.0367 39.3537 12.0367 29.9995C12.0367 20.6453 19.6458 13.0362 29 13.0362Z" fill="#E59434"/>
<path id="Vector_3" d="M26.2139 35.9866C26.3066 36.0798 26.4168 36.1537 26.5381 36.2042C26.6594 36.2547 26.7895 36.2806 26.921 36.2806C27.0524 36.2806 27.1825 36.2547 27.3038 36.2042C27.4251 36.1537 27.5353 36.0798 27.628 35.9866L38.1891 25.4254C38.3767 25.2379 38.482 24.9836 38.482 24.7184C38.482 24.4532 38.3767 24.1989 38.1891 24.0114C38.0016 23.8239 37.7473 23.7185 37.4821 23.7185C37.2169 23.7185 36.9626 23.8239 36.7751 24.0114L26.921 33.8656L21.2259 28.1705C21.133 28.0776 21.0228 28.004 20.9015 27.9537C20.7802 27.9035 20.6502 27.8776 20.5188 27.8776C20.3875 27.8776 20.2575 27.9035 20.1362 27.9537C20.0149 28.004 19.9047 28.0776 19.8118 28.1705C19.719 28.2633 19.6453 28.3735 19.5951 28.4948C19.5448 28.6161 19.519 28.7462 19.519 28.8775C19.519 29.0088 19.5448 29.1388 19.5951 29.2601C19.6453 29.3814 19.719 29.4916 19.8118 29.5845L26.2139 35.9866Z" fill="#E59434"/>
</g>
</svg>
