<svg width="60" height="60" viewBox="0 0 60 60" fill="none" xmlns="http://www.w3.org/2000/svg">
<g id="Group">
<path id="Vector" d="M2.64312 34.5393C3.43477 35.3437 4.25197 36.1737 4.43073 36.8504C4.62226 37.5782 4.32858 38.7529 4.0349 39.8766C3.60077 41.562 3.11556 43.4646 4.00936 45.0096C4.91594 46.5801 6.83124 47.1036 8.51671 47.5761C9.62758 47.8825 10.7768 48.2017 11.2875 48.7253C11.811 49.2488 12.1302 50.3852 12.4367 51.4961C12.9091 53.1815 13.4326 55.0968 15.0032 55.9906C16.5482 56.8844 18.4507 56.3992 20.1362 55.9651C21.2598 55.6714 22.4346 55.3777 23.1624 55.5693C23.8391 55.748 24.6691 56.5652 25.4735 57.3569C26.7376 58.5954 28.1677 60 30.0064 60C31.8451 60 33.2879 58.5954 34.5393 57.3569C35.3437 56.5652 36.1737 55.748 36.8504 55.5693C37.591 55.365 38.7529 55.6714 39.8766 55.9651C41.562 56.3992 43.4646 56.8844 45.0096 55.9906C46.5801 55.0841 47.1036 53.1688 47.5761 51.4833C47.8825 50.3724 48.2017 49.2232 48.7125 48.7125C49.236 48.189 50.3724 47.8825 51.4833 47.5633C53.1688 47.0909 55.0841 46.5674 55.9906 44.9968C56.8844 43.4518 56.3992 41.5493 55.9651 39.8766C55.6714 38.7529 55.3777 37.5782 55.5693 36.8504C55.748 36.1737 56.5652 35.3437 57.3569 34.5393C58.5954 33.2752 60 31.8451 60 30.0064C60 28.1549 58.5954 26.7248 57.3569 25.4607C56.5652 24.6563 55.748 23.8263 55.5693 23.1496C55.3777 22.4218 55.6714 21.2471 55.9651 20.1234C56.3992 18.438 56.8844 16.5354 55.9906 14.9904C55.0841 13.4199 53.1688 12.8964 51.4833 12.4239C50.3724 12.1175 49.2232 11.7983 48.7125 11.2747C48.189 10.7512 47.8698 9.61481 47.5633 8.50394C47.0909 6.81847 46.5674 4.90317 44.9968 3.9966C43.4518 3.10279 41.5493 3.588 39.8638 4.02213C38.7402 4.31581 37.5654 4.60949 36.8376 4.41796C36.1609 4.2392 35.3309 3.422 34.5265 2.63035C33.2879 1.40455 31.8578 0 30.0064 0C28.1549 0 26.7248 1.40455 25.4735 2.64312C24.6691 3.43477 23.8391 4.25197 23.1624 4.43073C22.4346 4.62226 21.2598 4.32858 20.1362 4.0349C18.4507 3.60077 16.5482 3.11556 15.016 4.00936C13.4454 4.91594 12.9219 6.83124 12.4495 8.51671C12.1302 9.62758 11.811 10.7768 11.2875 11.2875C10.764 11.7983 9.62758 12.1175 8.51671 12.4367C6.83124 12.9091 4.91594 13.4326 4.00936 15.0032C3.11556 16.5482 3.60077 18.4507 4.0349 20.1362C4.32858 21.2598 4.62226 22.4346 4.43073 23.1624C4.25197 23.8391 3.43477 24.6691 2.64312 25.4735C1.40455 26.7248 0 28.1549 0 30.0064C0 31.8578 1.40455 33.2879 2.64312 34.5393ZM4.46904 27.2611C5.49053 26.2269 6.55033 25.1415 6.90785 23.8136C7.27814 22.4346 6.89508 20.9406 6.52479 19.485C6.20558 18.2209 5.86082 16.9057 6.23111 16.2673C6.61417 15.6033 7.92935 15.233 9.20621 14.8883C10.6363 14.4924 12.1047 14.0838 13.1007 13.0879C14.0966 12.0919 14.5052 10.6235 14.901 9.19345C15.2586 7.91658 15.6161 6.6014 16.2801 6.21834C16.9185 5.84805 18.2209 6.18004 19.4978 6.51202C20.9406 6.88232 22.4346 7.26538 23.8136 6.89508C25.1415 6.53756 26.2141 5.47776 27.2611 4.45627C28.2188 3.52415 29.202 2.55373 30.0064 2.55373C30.8108 2.55373 31.794 3.52415 32.7516 4.46904C33.7987 5.49053 34.8713 6.55033 36.1992 6.90785C37.5782 7.27814 39.0721 6.89508 40.515 6.52479C41.7791 6.20558 43.0815 5.86082 43.7327 6.23111C44.3967 6.61417 44.7542 7.92935 45.1117 9.20621C45.5076 10.6363 45.9162 12.1047 46.9121 13.1007C47.9081 14.0966 49.3765 14.5052 50.8066 14.901C52.0834 15.2586 53.3986 15.6161 53.7817 16.2801C54.1519 16.9185 53.82 18.2337 53.488 19.4978C53.1177 20.9406 52.7346 22.4346 53.1049 23.8136C53.4624 25.1415 54.5222 26.2141 55.5437 27.2611C56.4886 28.2188 57.459 29.202 57.459 30.0064C57.459 30.8108 56.4886 31.794 55.5437 32.7516C54.5222 33.7859 53.4624 34.8713 53.1049 36.1992C52.7346 37.5782 53.1177 39.0721 53.488 40.5278C53.8072 41.7919 54.1519 43.107 53.7817 43.7455C53.3986 44.4094 52.0834 44.767 50.8066 45.1245C49.3765 45.5203 47.9081 45.9289 46.9121 46.9249C45.9162 47.9208 45.5076 49.3892 45.1117 50.8193C44.7542 52.0962 44.3967 53.4114 43.7327 53.7944C43.0943 54.1647 41.7791 53.8327 40.515 53.5007C39.0721 53.1305 37.5654 52.7474 36.1992 53.1177C34.8713 53.4752 33.7987 54.535 32.7516 55.5565C31.794 56.5014 30.8108 57.4718 30.0064 57.4718C29.202 57.4718 28.2188 56.5014 27.2611 55.5565C26.2141 54.535 25.1415 53.4752 23.8136 53.1177C23.4177 53.0155 23.0092 52.9645 22.6006 52.9645C21.5791 52.9645 20.5193 53.2326 19.485 53.5007C18.2209 53.82 16.9185 54.1647 16.2673 53.7944C15.6033 53.4114 15.2458 52.0962 14.8883 50.8193C14.4924 49.3892 14.0838 47.9208 13.0879 46.9249C12.0919 45.9289 10.6235 45.5203 9.19345 45.1245C7.91658 44.767 6.6014 44.4094 6.21834 43.7455C5.84805 43.107 6.18004 41.7919 6.51202 40.5278C6.88232 39.0849 7.26538 37.5782 6.89508 36.1992C6.55033 34.8713 5.49053 33.7987 4.46904 32.7516C3.52415 31.794 2.55373 30.8108 2.55373 30.0064C2.55373 29.202 3.52415 28.2188 4.46904 27.2611Z" fill="#E59434"/>
<path id="Vector_2" d="M31.5003 29.087H21.7578V31.6408H23.4561L36.7355 44.9713L38.5486 43.1709L27.0696 31.6408H31.5131C35.5097 31.6408 38.8168 28.704 39.4297 24.8862H40.7704V22.3324H39.4297C39.1743 20.7236 38.4337 19.2679 37.3611 18.1315H40.7704V15.5778H19.2679V18.1315H31.5131C34.0924 18.1315 36.2503 19.9319 36.8249 22.3324H19.2552V24.8862H36.8249C36.2375 27.2867 34.0796 29.087 31.5003 29.087Z" fill="#E59434"/>
</g>
</svg>
