<svg width="75" height="60" viewBox="0 0 75 60" fill="none" xmlns="http://www.w3.org/2000/svg">
<g id="Group">
<path id="Vector" fillRule="evenodd" clipRule="evenodd" d="M51.4557 27.1134C51.4557 27.5032 51.1203 27.8387 50.7429 27.8387H24.2458C23.8685 27.8387 23.5331 27.5034 23.5331 27.1134V23.0424C23.5331 22.6526 23.8685 22.3213 24.2458 22.3213H34.2242L31.541 24.4175C31.0379 24.8075 30.954 25.516 31.3314 26.0149C31.7169 26.4866 32.4837 26.5738 32.9664 26.1953L37.4944 22.6232L42.0644 26.1953C42.5466 26.5719 43.2583 26.5035 43.6575 26.0149C44.0348 25.516 43.951 24.8075 43.4479 24.4175L40.7647 22.3213H50.7431C51.1204 22.3213 51.4558 22.6524 51.4558 23.0424V27.1134H51.4557ZM47.8081 44.2946C47.8081 44.9277 47.305 45.4433 46.6761 45.4433H41.1V30.0984H47.8081V44.2946ZM38.836 30.0986V45.4435H36.1527V30.0986H38.836ZM27.1807 44.2946V30.0986H33.8888V45.4435H28.3126C27.6838 45.4433 27.1807 44.9277 27.1807 44.2946ZM29.6123 13.8941C29.6123 13.6561 29.952 13.3072 30.1992 13.3072C31.0377 13.3366 31.8764 13.8187 33.0082 15.0093C34.3078 16.3677 35.1463 18.0281 35.5236 18.9001C35.6494 19.0971 35.6913 19.2899 35.8171 19.487C35.6075 19.3948 35.3979 19.3236 35.2302 19.2314C34.3498 18.8373 32.6728 17.982 31.331 16.6824C30.1154 15.5545 29.6542 14.7412 29.6123 13.8941ZM39.4649 18.9001C39.8422 18.0281 40.7226 16.3677 42.0223 15.0093C43.1543 13.8187 43.9508 13.3365 44.7893 13.3072C45.0658 13.3024 45.3816 13.6816 45.3763 13.8941C45.3343 14.741 44.8732 15.5543 43.6993 16.6822C42.3158 17.9819 40.6807 18.8371 39.8001 19.2312C39.5905 19.3234 39.3809 19.3948 39.2132 19.4869C39.2972 19.2901 39.381 19.0972 39.4649 18.9001ZM50.7429 20.0615H42.9867C44.9733 18.8255 47.6113 16.546 47.6405 13.9403C47.6585 12.3335 46.269 11.0289 44.7476 11.0474C41.327 11.0891 38.6021 15.4496 37.4944 17.7387C36.9913 16.699 36.069 14.9339 34.6434 13.4455C33.5114 12.2841 32.1279 11.0934 30.2412 11.0474C29.5284 11.0474 28.7738 11.3492 28.2288 11.9069C27.6418 12.4478 27.3484 13.2025 27.3903 13.9403C27.3903 15.8102 28.6061 17.2106 29.7382 18.3258C30.4929 19.005 31.2475 19.5919 32.0022 20.0615H24.2458C22.6107 20.0615 21.269 21.4031 21.269 23.0424V27.1134C21.269 28.7568 22.6105 30.0986 24.2458 30.0986H24.9166V44.2946C24.9166 46.1771 26.4678 47.7031 28.3126 47.7031H46.6761C48.5627 47.7031 50.0721 46.1771 50.0721 44.2946V30.0986H50.7429C52.378 30.0986 53.7198 28.757 53.7198 27.1134V23.0424C53.7196 21.4031 52.378 20.0615 50.7429 20.0615ZM61.5179 37.7836C63.1415 32.7759 63.1398 27.2186 61.5179 22.2166H71.5382L66.6748 29.3734C66.4232 29.7507 66.4232 30.2622 66.6748 30.6395L71.5382 37.7836H61.5179ZM37.4943 57.7402C49.0658 57.7402 59.2538 50.684 63.3626 40.0432H60.6794C56.7802 48.9819 47.8501 55.254 37.4944 55.254C27.1387 55.254 18.2086 48.9819 14.3514 40.0432H11.6261C15.7348 50.684 25.9647 57.7402 37.4943 57.7402ZM8.35586 30.6393C8.60741 30.262 8.60741 29.7505 8.35586 29.3732L3.45052 22.2164H13.4708C11.8489 27.2184 11.8471 32.7759 13.4708 37.7834H3.45052L8.35586 30.6393ZM37.4943 52.99C50.1558 52.99 60.4696 42.6805 60.4696 30.0063C60.4696 17.3321 50.1558 7.00585 37.4943 7.00585C24.8327 7.00585 14.5189 17.3321 14.5189 30.0063C14.5189 42.6805 24.8327 52.99 37.4943 52.99ZM37.4943 2.25982C25.9647 2.25982 15.7348 9.3117 11.626 19.9525H14.3512C18.2085 11.0181 27.1386 4.74603 37.4943 4.74603C47.85 4.74603 56.7801 11.0181 60.6792 19.9525H63.3624C59.2538 9.3117 49.066 2.25982 37.4943 2.25982ZM68.9806 30.0063L74.5987 21.7176C75.1091 20.9929 74.6079 19.9525 73.6763 19.9525H65.7944C61.5429 8.01323 50.2092 0 37.4944 0C24.7648 0 13.5028 7.97131 9.23645 19.9525H1.31237C0.394823 19.9525 -0.101598 21.004 0.394139 21.7176L6.05001 30.0063L0.394139 38.2824C-0.10348 39.0023 0.395508 40.0432 1.31237 40.0432H9.23628C13.4996 52.0248 24.749 60 37.4943 60C50.2217 60 61.5449 51.9856 65.7942 40.0432H73.6762C74.6134 40.0432 75.1071 39.0081 74.5985 38.2824L68.9806 30.0063Z" fill="#E59434"/>
</g>
</svg>
