<svg width="64" height="60" viewBox="0 0 64 60" fill="none" xmlns="http://www.w3.org/2000/svg">
<g id="Group 4">
<path id="Vector" d="M63.5478 29.1743C63.3276 28.0734 62.667 27.1927 62.0065 26.5321C61.6762 26.2018 61.2359 25.8716 60.9056 25.5413C60.4652 25.211 60.1349 24.9908 59.6946 24.6606C58.5937 23.6697 57.6028 22.4587 57.3826 20.6972C57.2725 19.3761 57.4927 18.1651 57.823 17.0642C58.1533 16.0734 58.4836 14.7523 58.2634 13.4312C57.9331 11.1193 56.0615 9.90826 53.6395 9.68807C52.979 9.57798 52.3184 9.68807 51.6579 9.57798C48.245 9.46789 46.4836 7.81651 45.4927 5.2844C45.2725 4.73395 45.1625 4.29358 44.9423 3.74312C44.5019 2.75229 44.0615 1.87156 43.2909 1.21101C42.6303 0.550459 41.5294 0 40.2083 0C38.8872 0.110092 37.8964 0.550459 37.0157 1.10092C36.1349 1.65138 35.3643 2.31193 34.4836 2.75229C33.6028 3.19266 32.2817 3.52294 30.9606 3.30275C29.7496 3.08257 28.8689 2.6422 27.9881 2.09174C27.5478 1.87156 27.2175 1.54128 26.7771 1.21101C25.8964 0.66055 24.9056 0.220183 23.6946 0.110092C23.034 0.110092 22.3735 0.110092 21.9331 0.330275C20.3918 0.880734 19.5111 2.20183 18.9606 3.63303C18.7404 4.07339 18.6303 4.62385 18.4102 5.17431C17.4193 7.70642 15.768 9.46789 12.3551 9.68807C11.6946 9.68807 11.034 9.68807 10.3735 9.79817C7.84135 10.0183 6.07989 11.2294 5.63952 13.4312C5.52943 14.0917 5.52943 14.7523 5.63952 15.4128C5.74961 16.6239 6.30007 17.6147 6.52025 18.7156C6.63034 19.2661 6.74044 19.9266 6.63034 20.5872C6.52025 21.7982 6.07989 22.789 5.41933 23.5596C4.75878 24.3303 4.09823 24.9908 3.2175 25.5413C2.44686 26.0917 1.67622 26.8624 1.12576 27.633C0.575298 28.4037 0.134931 29.6147 0.465206 30.9358C0.68539 32.0367 1.34594 32.8073 2.00649 33.578C2.33677 33.9083 2.77713 34.2385 3.10741 34.5688C3.54778 34.8991 3.87805 35.1193 4.31842 35.4495C5.41933 36.4404 6.41016 37.6514 6.63034 39.4128C6.74044 40.0734 6.63034 40.7339 6.52025 41.3945C6.30007 42.6055 5.8597 43.4862 5.63952 44.6972C5.52943 45.3578 5.52943 46.0183 5.63952 46.5688C5.96979 48.9908 7.84135 50.0917 10.2634 50.3119C10.9239 50.422 11.5845 50.422 12.245 50.422C15.6579 50.5321 17.5294 52.2936 18.4102 54.7156C18.6303 55.2661 18.7404 55.7064 18.9606 56.2569C19.401 57.2477 19.8414 58.1284 20.612 58.789C21.3826 59.4495 22.2634 60 23.6946 60C24.3551 60 24.9056 59.7798 25.456 59.6697C26.5569 59.2294 27.3276 58.6789 28.0982 58.1284C29.3092 57.3578 30.8505 56.4771 32.9423 56.8073C34.1533 57.0275 35.034 57.4679 35.9147 58.0184C36.3551 58.3486 36.6854 58.5688 37.1258 58.8991C38.0065 59.4495 38.8872 59.8899 40.2083 60C40.8689 60 41.5294 60 42.0799 59.7798C43.6212 59.2294 44.3918 57.9083 45.0524 56.4771C45.2725 56.0367 45.3826 55.4862 45.6028 54.9358C46.5937 52.4037 48.3551 50.6422 51.6579 50.422C52.3184 50.422 52.979 50.422 53.6395 50.3119C56.7221 49.9817 58.9239 48.3303 58.4836 44.8073C58.2634 42.9358 57.3826 41.7248 57.4927 39.5229C57.6028 38.2018 58.0432 37.3211 58.5937 36.4404C59.1441 35.6697 60.0248 35.0092 60.7955 34.4587C61.5661 33.9083 62.3368 33.1376 62.8872 32.367C63.3276 31.7064 63.8781 30.4954 63.5478 29.1743ZM60.245 31.3761C59.6946 32.0367 58.8138 32.5872 58.1533 33.1376C57.1625 34.0183 56.1716 35.0092 55.5111 36.3303C55.0707 37.211 54.7404 38.0917 54.6303 39.3028C54.5203 40.5138 54.7404 41.7248 54.9606 42.7156C55.1808 43.7064 55.7313 44.5872 55.6212 45.9083C55.6212 47.1193 54.6303 47.5596 53.5294 47.6697C53.0891 47.7798 52.4285 47.6697 51.768 47.6697C46.8138 47.8899 44.1716 50.422 42.8505 54.1651C42.5203 55.156 42.19 56.0367 41.5294 56.6973C41.1992 57.0275 40.7588 57.2477 40.0982 57.1376C39.1074 57.0275 38.2267 56.367 37.5661 55.8165C36.7955 55.2661 36.0248 54.8257 35.034 54.4954C34.0432 54.1651 33.0524 53.8349 31.7313 53.945C30.5203 53.945 29.5294 54.2752 28.5386 54.6055C27.6579 54.9358 26.7771 55.4862 26.0065 56.0367C25.3459 56.4771 24.4652 57.1376 23.3643 57.2477C22.8138 57.2477 22.3735 57.0275 22.0432 56.5872C21.3826 55.8165 21.1625 54.9358 20.8322 53.945C19.6212 50.6422 17.4193 48.3303 13.5661 47.7798C13.0157 47.6697 12.3551 47.6697 11.8047 47.6697C9.9331 47.6697 8.06154 47.5596 8.06154 45.578C8.06154 44.367 8.5019 43.4862 8.83218 42.4954C9.05236 41.3945 9.27255 40.1835 9.05236 38.9725C8.72209 36.2202 7.1808 34.3486 5.41933 32.9174C4.64869 32.367 3.87805 31.8165 3.32759 31.156C3.10741 30.8257 2.77713 30.3853 2.77713 29.8349C2.77713 29.2844 3.10741 28.844 3.43768 28.5138C4.09823 27.8532 4.86888 27.3028 5.52943 26.7523C6.52025 25.8716 7.51108 24.8807 8.17163 23.5596C8.61199 22.6789 8.94227 21.6881 9.05236 20.5872C9.16245 19.3761 8.94227 18.1651 8.72209 17.1743C8.61199 16.6239 8.39181 16.1835 8.28172 15.7431C8.17163 15.1927 8.06154 14.6422 8.06154 14.0917C8.06154 13.4312 8.28172 13.1009 8.72209 12.7706C9.05236 12.5505 9.60282 12.3303 10.1533 12.2202C10.7037 12.1101 11.3643 12.1101 12.0248 12.1101C12.6854 12.1101 13.2358 12 13.7863 11.8899C14.8872 11.6697 15.8781 11.3395 16.6487 10.8991C18.7404 9.79817 20.0615 7.92661 20.9423 5.50459C21.2725 4.51376 21.6028 3.63303 22.1533 2.97248C22.4836 2.6422 22.9239 2.42202 23.5845 2.42202C24.1349 2.53211 24.5753 2.75229 25.0157 2.97248C25.456 3.19266 25.7863 3.52294 26.2267 3.74312C27.3276 4.51376 28.6487 5.17431 30.19 5.50459C30.7404 5.61468 31.2909 5.72477 31.9514 5.72477C34.4836 5.61468 36.1349 4.73394 37.6762 3.63303C38.0065 3.41284 38.4469 3.08257 38.8872 2.86239C39.3276 2.6422 39.768 2.42202 40.3184 2.31193C41.4193 2.20184 42.0799 3.30275 42.4102 4.07339C42.6303 4.51376 42.7404 5.06422 42.9606 5.50459C43.7313 7.81651 45.2725 9.68807 47.3643 10.789C48.6854 11.4495 50.2267 11.8899 52.0982 11.8899C53.9698 11.8899 55.8414 12 55.8414 13.9817C55.8414 15.1927 55.401 16.0734 55.0707 17.0642C54.8505 18.1651 54.7404 19.3761 54.8505 20.5872C54.9606 21.6881 55.2909 22.6789 55.7313 23.5596C56.3918 24.7706 57.2725 25.7615 58.3735 26.6422C59.1441 27.1927 59.9148 27.633 60.4652 28.4037C60.7955 28.7339 61.0157 29.1743 61.0157 29.7248C60.9056 30.6055 60.5753 31.0459 60.245 31.3761Z" fill="#E59434"/>
<path id="Vector_2" d="M40.2083 16.9541C40.4285 16.6238 40.6486 16.2936 40.6486 15.8532C40.7587 15.4128 40.5386 14.9725 40.3184 14.7523C40.0982 14.5321 39.6578 14.3119 39.2175 14.3119C38.3367 14.422 38.0064 15.1927 37.6762 15.8532C37.3459 16.5138 37.0156 17.1743 36.6853 17.8349C36.3551 18.4954 36.0248 19.156 35.6945 19.8165C34.7037 21.7982 33.6028 23.8899 32.6119 25.8716C31.9514 27.1927 31.1808 28.5138 30.5202 29.9449C29.5294 31.9266 28.4285 34.0183 27.4376 36C27.1074 36.6605 26.7771 37.3211 26.4468 37.9816C25.5661 39.633 24.6853 41.3945 23.8046 43.0459C23.5844 43.3761 23.3642 43.7064 23.3642 44.1468C23.2542 44.6972 23.4743 45.0275 23.6945 45.2477C23.9147 45.4679 24.3551 45.6881 24.7954 45.6881C25.6762 45.578 26.0064 44.8073 26.3367 44.1468C26.667 43.4862 26.9973 42.8257 27.3275 42.1651C28.7587 39.4128 30.0798 36.7706 31.511 34.1284C32.1716 32.8073 32.9422 31.4862 33.6028 30.055C34.9239 27.4128 36.3551 24.6605 37.7863 22.0183C38.4468 20.367 39.3275 18.7156 40.2083 16.9541Z" fill="#E59434"/>
<path id="Vector_3" d="M26.4469 29.2844C27.5478 28.0734 28.4285 26.5321 28.3184 24.2202C28.3184 23.2293 27.9882 22.2385 27.6579 21.4679C27.2175 20.6972 26.7771 20.0367 26.2267 19.4862C25.0157 18.3853 23.3643 17.5046 21.1625 17.6147C20.0616 17.6147 19.1808 17.9449 18.3001 18.2752C17.5294 18.7156 16.8689 19.1559 16.3184 19.7064C15.2175 20.9174 14.3368 22.4587 14.4469 24.7706C14.4469 25.8715 14.7771 26.7523 15.1074 27.5229C15.4377 28.2936 15.9882 28.9541 16.5386 29.5046C17.0891 30.055 17.8597 30.4954 18.6304 30.8257C19.401 31.1559 20.5019 31.3761 21.6028 31.3761C22.7038 31.3761 23.5845 31.0458 24.3551 30.7156C25.2359 30.3853 25.8964 29.8348 26.4469 29.2844ZM18.5203 27.633C17.7496 26.9725 17.1992 26.0917 17.0891 24.7706C16.979 23.4495 17.5294 22.3486 18.19 21.6881C18.7404 21.1376 19.2909 20.6972 20.1716 20.477C20.5019 20.3669 20.8322 20.367 21.1625 20.367C22.5937 20.2569 23.5845 20.8073 24.3551 21.4679C25.1258 22.1284 25.6762 23.0092 25.7863 24.3303C25.8964 25.6514 25.346 26.7523 24.6854 27.4128C24.0249 28.0734 23.1441 28.7339 21.823 28.7339C20.2817 28.844 19.2909 28.2936 18.5203 27.633Z" fill="#E59434"/>
<path id="Vector_4" d="M47.3643 30.6055C46.1533 29.5046 44.5019 28.6239 42.3 28.734C41.1991 28.734 40.3184 29.0642 39.4377 29.3945C38.667 29.8349 38.0065 30.2752 37.456 30.8257C36.3551 32.0367 35.4744 33.578 35.5844 35.8899C35.5844 36.9908 35.9147 37.8716 36.245 38.6422C36.5753 39.4128 37.1257 40.0734 37.6762 40.6239C38.2266 41.1743 38.9973 41.6147 39.7679 41.945C40.5386 42.2752 41.6395 42.4954 42.7404 42.4954C43.8413 42.4954 44.7221 42.1651 45.4927 41.8349C46.2633 41.5046 46.9239 40.9541 47.4744 40.4037C48.5753 39.1927 49.456 37.6514 49.3459 35.3395C49.3459 34.3486 49.0156 33.3578 48.6854 32.5872C48.4652 31.8165 47.9147 31.156 47.3643 30.6055ZM45.6028 38.422C44.9422 39.0826 44.0615 39.7431 42.7404 39.7431C41.3092 39.8532 40.3184 39.3028 39.5478 38.6422C38.7771 37.9817 38.2266 37.1009 38.1166 35.7798C38.0065 34.4587 38.5569 33.3578 39.2175 32.6973C39.7679 32.1468 40.3184 31.7064 41.1991 31.4862C41.5294 31.3762 41.8597 31.3762 42.19 31.3762C43.6211 31.2661 44.612 31.8165 45.3826 32.4771C46.1533 33.1376 46.7037 34.0184 46.8138 35.3395C46.8138 36.6606 46.2633 37.7615 45.6028 38.422Z" fill="#E59434"/>
</g>
</svg>
