<svg width="52" height="60" viewBox="0 0 52 60" fill="none" xmlns="http://www.w3.org/2000/svg">
<g id="Group">
<path id="Vector" d="M33.3846 52.3397C33.5601 51.0003 34.0446 49.7201 34.7998 48.6001C34.8178 48.5677 34.8338 48.5341 34.8476 48.4998C51.0244 39.0079 51.991 18.2668 51.999 18.0367C52.0074 17.811 51.9391 17.5891 51.8052 17.4072C51.6713 17.2253 51.4797 17.0942 51.2616 17.0352C49.3712 16.5144 47.5726 15.7047 45.9294 14.6347C46.0462 14.0993 46.014 13.542 45.8361 13.0236C45.6582 12.5052 45.3416 12.0456 44.9206 11.6947C44.4996 11.3438 43.9904 11.1151 43.4484 11.0335C42.9065 10.9519 42.3525 11.0205 41.8469 11.232C40.6803 9.99274 39.6436 8.6374 38.7529 7.18711C38.7363 7.16027 38.7187 7.13437 38.7002 7.10894C38.0223 6.03258 37.441 4.8983 36.9631 3.71941C36.5827 1.16965 31.1111 0 26 0C20.8889 0 15.4173 1.16965 15.0369 3.71941C14.559 4.8983 13.9777 6.03258 13.2998 7.10894C13.2813 7.13437 13.2637 7.16027 13.2471 7.18711C12.3564 8.6374 11.3197 9.99274 10.1531 11.232C9.64743 11.0189 9.09295 10.9491 8.55027 11.03C8.00759 11.1109 7.49762 11.3396 7.07616 11.6909C6.65469 12.0422 6.33796 12.5026 6.16061 13.0219C5.98326 13.5411 5.95213 14.0991 6.07061 14.6348C4.42736 15.7047 2.62875 16.5144 0.738344 17.0353C0.52032 17.0943 0.328721 17.2254 0.19481 17.4073C0.0608983 17.5892 -0.0074209 17.8111 0.00100008 18.0368C0.00908601 18.267 0.975415 39.0067 17.1523 48.4998C17.1663 48.5343 17.1822 48.5678 17.2001 48.6002C17.95 49.7227 18.4323 51.0022 18.6098 52.3404C12.2363 52.9349 8.99995 54.1639 8.99995 56.0002C8.99995 59.8071 23.1611 60 26 60C28.8389 60 43 59.8071 43 56C43 54.1632 39.7618 52.9339 33.3846 52.3397ZM43 13C43.2652 13.0002 43.5194 13.1056 43.7069 13.2931C43.8943 13.4806 43.9998 13.7348 44 13.9999C44 14.5522 43.5523 14.9999 43 14.9999C42.4477 14.9999 42.0001 14.5522 42.0001 13.9999C42.0001 13.4476 42.4477 13 43 13ZM41 17.5C41 18.3284 40.3284 19 39.5 19C38.6719 18.999 38.0009 18.328 38 17.5C38 16.6716 38.6716 16 39.5 16C40.3284 16 41 16.6716 41 17.5ZM26 2.00004C31.7969 2.00004 34.7949 3.43406 34.9971 4.00008C34.7949 4.56598 31.7969 6 26 6C20.1503 6 17.1514 4.53996 16.998 4.01508C17.1514 3.45996 20.1503 2.00004 26 2.00004ZM14.918 8.28902L14.959 8.22797V8.22844C15.4171 7.49353 15.8389 6.73664 16.223 5.96051C16.777 6.33675 17.3786 6.63759 18.0119 6.85512C18.0815 6.88933 18.155 6.91502 18.2308 6.93164C20.7503 7.68483 23.3708 8.04512 26.0001 7.9998C28.6296 8.04507 31.2504 7.68467 33.7701 6.93129C33.8447 6.91474 33.917 6.88945 33.9856 6.85594C34.6199 6.6383 35.2223 6.33713 35.7771 5.96039C36.1612 6.73649 36.583 7.49337 37.041 8.22832V8.22785L37.0821 8.28891C38.0319 9.82693 39.1343 11.2654 40.3724 12.5824C40.1315 13.0163 40.0035 13.5037 40.0001 13.9999C40.0001 14.0174 40.0051 14.0336 40.0053 14.051C39.8384 14.0216 39.6696 14.0045 39.5002 13.9999C37.7071 14.0057 36.2098 15.3683 36.0353 17.1529C35.6986 17.0562 35.3505 17.0048 35.0002 16.9999C33.065 17.0039 31.4103 18.393 31.0712 20.2984C29.2556 19.593 27.1923 20.166 26.0002 21.7064C25.5831 21.1766 25.0516 20.748 24.4455 20.4525C23.8395 20.157 23.1745 20.0023 22.5002 19.9999C21.9628 20.0038 21.4306 20.1049 20.9293 20.2984C20.5901 18.393 18.9355 17.004 17.0002 16.9999C16.6499 17.0047 16.3018 17.0562 15.9651 17.1529C15.7907 15.3683 14.2933 14.0058 12.5002 13.9999C12.3308 14.0045 12.162 14.0216 11.9951 14.051C11.9954 14.0337 12.0003 14.0175 12.0003 13.9999C11.9969 13.5037 11.8688 13.0163 11.628 12.5824C12.866 11.2654 13.9683 9.82697 14.918 8.28902ZM37 21C37 22.1046 36.1046 23 35 23C33.896 22.9988 33.0012 22.1041 32.9999 21C32.9999 19.8954 33.8954 19 35 19C36.1046 19 37 19.8954 37 21ZM32 24.5C32 25.8807 30.8807 27 29.5 27C28.1193 27 27.0001 25.8807 27.0001 24.5C27.0015 23.1199 28.1199 22.0015 29.5 22.0001C30.8807 22 32 23.1193 32 24.5ZM25 24.5C25 25.8807 23.8808 27 22.5001 27C21.1194 27 20.0001 25.8807 20.0001 24.5C20.0015 23.1199 21.1199 22.0015 22.5001 22.0001C23.8808 22 25 23.1193 25 24.5ZM19 21C19 22.1046 18.1046 23 17 23C15.8954 23 14.9999 22.1046 14.9999 21C15.0012 19.896 15.896 19.0012 17 19C18.1046 19 19 19.8954 19 21ZM12.5 16C13.3284 16 14 16.6716 14 17.5C14 18.3284 13.3284 19 12.5 19C11.6716 19 11 18.3284 11 17.5C11.0009 16.6719 11.6719 16.0009 12.5 16ZM8.99995 13C9.55225 13 9.99991 13.4476 9.99991 13.9999C9.99991 14.5522 9.55225 14.9999 8.99995 14.9999C8.73474 14.9999 8.4804 14.8945 8.29287 14.707C8.10534 14.5195 7.99998 14.2651 7.99998 13.9999C8.00029 13.7348 8.10575 13.4806 8.29321 13.2932C8.48067 13.1057 8.73483 13.0003 8.99995 13ZM2.05659 18.7324C3.84888 18.1623 5.5567 17.3546 7.13444 16.3308C7.66131 16.7609 8.31983 16.9971 8.99995 17C9.01752 17 9.03358 16.9951 9.05092 16.9949C9.02158 17.1618 9.00455 17.3307 8.99995 17.5001C9.00229 19.4321 10.5679 20.9978 12.5 21.0001C12.6694 20.9955 12.8382 20.9785 13.0051 20.949C13.0048 20.9665 12.9999 20.9825 12.9999 21.0001C13.0022 23.2083 14.7917 24.9977 16.9999 25.0001C17.3502 24.9953 17.6983 24.9438 18.035 24.8471C18.098 25.7468 18.432 26.6064 18.9931 27.3125C19.5541 28.0187 20.3158 28.5384 21.178 28.8032C22.0401 29.068 22.9622 29.0655 23.8229 28.796C24.6836 28.5266 25.4426 28.0027 25.9998 27.2936C26.557 28.0027 27.3159 28.5264 28.1766 28.7959C29.0373 29.0653 29.9594 29.0678 30.8215 28.803C31.6836 28.5382 32.4453 28.0185 33.0063 27.3124C33.5674 26.6063 33.9014 25.7468 33.9645 24.8471C34.3013 24.9438 34.6493 24.9952 34.9996 25.0001C37.2078 24.9977 38.9972 23.2083 38.9996 21.0001C38.9996 20.9825 38.9947 20.9665 38.9944 20.949C39.1613 20.9784 39.3302 20.9955 39.4995 21.0001C41.4316 20.9978 42.9972 19.4321 42.9996 17.5001C42.9949 17.3307 42.9779 17.1618 42.9486 16.9949C42.9659 16.9952 42.982 17 42.9996 17C43.6797 16.9971 44.3383 16.7609 44.8652 16.3308C46.4431 17.3548 48.1513 18.1626 49.944 18.7325C49.566 22.9015 46.8189 42.7887 28.6803 49.1559C26.9448 49.7587 25.0567 49.7591 23.321 49.157C5.20706 42.7978 2.43944 22.9029 2.05659 18.7324ZM26 58C17.2949 58 12.2871 56.7729 11.1591 56.0048C11.7914 55.5907 13.8644 54.8085 18.6403 54.3459C18.5918 54.8137 18.5037 55.2766 18.3769 55.7295C18.3393 55.8566 18.3272 55.9899 18.3415 56.1217C18.3558 56.2535 18.3962 56.3811 18.4602 56.4972C18.5243 56.6133 18.6108 56.7154 18.7147 56.7978C18.8186 56.8801 18.9378 56.941 19.0654 56.9768C19.1931 57.0127 19.3265 57.0228 19.4581 57.0066C19.5897 56.9905 19.7168 56.9483 19.8319 56.8825C19.947 56.8168 20.0479 56.7289 20.1288 56.6238C20.2096 56.5187 20.2688 56.3986 20.3028 56.2705C20.8787 54.2116 20.8091 52.0256 20.1035 50.0074C20.9261 50.3782 21.7699 50.7316 22.6612 51.0444C24.8246 51.7948 27.1777 51.7944 29.3409 51.0435C30.2315 50.7308 31.0746 50.3776 31.8967 50.0073C31.1909 52.0254 31.1213 54.2115 31.6973 56.2705C31.7328 56.397 31.7929 56.5152 31.8741 56.6184C31.9553 56.7216 32.0561 56.8079 32.1706 56.8722C32.2852 56.9365 32.4112 56.9776 32.5417 56.9931C32.6721 57.0087 32.8043 56.9984 32.9307 56.9629C33.0572 56.9274 33.1754 56.8673 33.2787 56.7861C33.3819 56.7049 33.4681 56.6041 33.5324 56.4896C33.5967 56.375 33.6378 56.249 33.6534 56.1185C33.6689 55.9881 33.6587 55.8559 33.6231 55.7295C33.4961 55.2765 33.4074 54.8137 33.358 54.3458C38.1351 54.8082 40.2085 55.5906 40.8408 56.0048C39.7129 56.773 34.705 58 26 58Z" fill="#E59434"/>
</g>
</svg>
